<svg width="79" height="79" viewBox="0 0 79 79" fill="none" xmlns="http://www.w3.org/2000/svg">
<mask id="mask0_0_22172" style="mask-type:alpha" maskUnits="userSpaceOnUse" x="0" y="0" width="79" height="79">
<path d="M65.6546 49.8191H65.6506C67.4867 47.7711 68.4462 44.7304 68.4462 41.7941C68.4462 39.6182 67.5818 37.5315 66.0432 35.9929C64.5047 34.4543 62.4179 33.59 60.242 33.59C58.0662 33.59 55.9794 34.4543 54.4409 35.9929C52.9023 37.5315 52.0379 39.6182 52.0379 41.7941C52.0379 44.1417 52.7221 46.6544 53.868 48.5145C54.151 48.9761 54.473 49.4125 54.8305 49.8191H54.825C52.9155 49.8151 51.0537 50.4153 49.5061 51.5338C48.8094 51.4181 48.1044 51.3596 47.3982 51.3588H46.0208C46.8735 50.5909 47.6152 49.7081 48.2246 48.7357C49.9265 46.0621 50.9026 42.5454 50.9026 39.0873C50.9081 37.5865 50.6173 36.0994 50.0468 34.7112C49.4763 33.3231 48.6374 32.0613 47.5781 30.9981C46.5188 29.9349 45.2601 29.0914 43.8741 28.5158C42.488 27.9402 41.002 27.6439 39.5012 27.6439C38.0004 27.6439 36.5144 27.9402 35.1284 28.5158C33.7424 29.0914 32.4836 29.9349 31.4244 30.9981C30.3651 32.0613 29.5262 33.3231 28.9557 34.7112C28.3852 36.0994 28.0943 37.5865 28.0998 39.0873C28.0998 42.4105 29.0664 45.9638 30.6854 48.5919C31.3079 49.6205 32.0772 50.5527 32.969 51.3591H31.6005C30.8943 51.3599 30.1894 51.4184 29.4927 51.5341C27.9451 50.4156 26.0833 49.8154 24.1738 49.8194H24.1682C24.5258 49.4129 24.8478 48.9764 25.1307 48.5148C26.2767 46.6544 26.9608 44.142 26.9608 41.7944C26.9608 39.6191 26.0967 37.5329 24.5585 35.9947C23.0204 34.4566 20.9342 33.5924 18.7589 33.5924C16.5836 33.5924 14.4974 34.4566 12.9592 35.9947C11.421 37.5329 10.5569 39.6191 10.5569 41.7944C10.5569 44.7307 11.5166 47.7714 13.3511 49.8194H13.3441C8.54411 49.8194 4.63916 53.4852 4.63916 57.9908V67.4646C4.63916 67.792 4.76921 68.106 5.0007 68.3374C5.23219 68.5689 5.54616 68.699 5.87354 68.699H19.4671V76.5312C19.4671 76.8586 19.5971 77.1726 19.8286 77.4041C20.0601 77.6356 20.3741 77.7656 20.7015 77.7656H58.299C58.6264 77.7656 58.9403 77.6356 59.1718 77.4041C59.4033 77.1726 59.5334 76.8586 59.5334 76.5312V68.6987H73.1295C73.4569 68.6987 73.7709 68.5686 74.0024 68.3371C74.2339 68.1057 74.3639 67.7917 74.3639 67.4643V57.9905C74.3639 53.4849 70.457 49.8191 65.6546 49.8191ZM54.5067 41.7941C54.5067 40.273 55.1109 38.8142 56.1865 37.7386C57.2621 36.663 58.7209 36.0587 60.242 36.0587C61.7632 36.0587 63.222 36.663 64.2976 37.7386C65.3731 38.8142 65.9774 40.273 65.9774 41.7941C65.9774 44.8968 64.419 49.8191 60.2397 49.8191C56.0632 49.8191 54.5067 44.8968 54.5067 41.7941ZM39.499 30.1518C41.8678 30.1545 44.1389 31.0967 45.8139 32.7717C47.4889 34.4467 48.4312 36.7178 48.4339 39.0866C48.4339 39.151 48.4312 39.2155 48.4303 39.2798C44.9906 38.8876 42.0217 38.1226 38.0123 34.9791C37.815 34.8244 37.5753 34.7335 37.3251 34.7184C37.0748 34.7034 36.8259 34.7649 36.6115 34.8947L30.5866 38.5434C30.7268 36.2736 31.7264 34.1426 33.382 32.5837C35.0376 31.0248 37.2249 30.1552 39.499 30.1518ZM32.7871 47.2969C31.7565 45.6237 31.0349 43.5026 30.7305 41.3411L37.1705 37.442C41.3561 40.5478 44.6323 41.3364 48.2117 41.7395C47.871 43.8185 47.1498 45.8254 46.1418 47.4093C44.9949 49.211 42.9114 51.3593 39.4987 51.3593C36.7062 51.3588 34.4476 49.9922 32.7871 47.2969ZM13.0249 41.7941C13.0249 41.0412 13.1732 40.2957 13.4613 39.6001C13.7494 38.9045 14.1717 38.2725 14.7041 37.7401C15.2365 37.2077 15.8685 36.7854 16.5641 36.4973C17.2597 36.2092 18.0052 36.0609 18.7581 36.0609C19.511 36.0609 20.2565 36.2092 20.9521 36.4973C21.6477 36.7854 22.2797 37.2077 22.8121 37.7401C23.3445 38.2725 23.7668 38.9045 24.0549 39.6001C24.343 40.2957 24.4913 41.0412 24.4913 41.7941C24.4913 44.8968 22.9348 49.8191 18.7581 49.8191C14.5814 49.8191 13.0249 44.8968 13.0249 41.7941ZM7.10714 66.2299V57.9905C7.10714 54.8461 9.9047 52.2878 13.3434 52.2878H24.173C24.8379 52.2877 25.4991 52.3865 26.1349 52.581C22.1827 54.4554 19.4659 58.2924 19.4659 62.7147V66.2304L7.10714 66.2299ZM57.0634 75.2969H50.8063V67.6873C50.8063 67.3599 50.6763 67.0459 50.4448 66.8144C50.2133 66.5829 49.8993 66.4529 49.5719 66.4529C49.2446 66.4529 48.9306 66.5829 48.6991 66.8144C48.4676 67.0459 48.3376 67.3599 48.3376 67.6873V75.2969H30.6647V67.6873C30.6647 67.3599 30.5347 67.0459 30.3032 66.8144C30.0717 66.5829 29.7577 66.4529 29.4303 66.4529C29.103 66.4529 28.789 66.5829 28.5575 66.8144C28.326 67.0459 28.196 67.3599 28.196 67.6873V75.2969H21.9346V62.7143C21.9346 57.8141 26.2703 53.8275 31.5998 53.8275H47.399C52.7284 53.8275 57.0641 57.8141 57.0641 62.7143L57.0634 75.2969ZM71.8952 66.2299H59.5321V62.7143C59.5321 58.292 56.8153 54.4549 52.8631 52.5805C53.4989 52.3861 54.1601 52.2873 54.825 52.2874H65.6546C69.0954 52.2874 71.8952 54.8456 71.8952 57.99V66.2299ZM32.64 15.9324L31.6771 22.6134C31.645 22.8359 31.6743 23.0629 31.7618 23.2699C31.8492 23.4769 31.9916 23.6561 32.1734 23.7882C32.3552 23.9203 32.5697 24.0002 32.7936 24.0193C33.0175 24.0385 33.2424 23.9962 33.4441 23.8969L39.499 20.9157L45.5582 23.8972C45.7599 23.9964 45.9848 24.0387 46.2087 24.0196C46.4326 24.0004 46.647 23.9204 46.8288 23.7884C47.0107 23.6563 47.153 23.477 47.2404 23.27C47.3279 23.063 47.3571 22.836 47.3251 22.6136L46.362 15.9325L51.0691 11.0932C51.2258 10.9321 51.3355 10.7313 51.3865 10.5125C51.4375 10.2936 51.4277 10.065 51.3583 9.85133C51.289 9.63761 51.1626 9.44688 50.9928 9.29971C50.823 9.15254 50.6162 9.05451 50.3948 9.01618L43.7409 7.86436L40.5906 1.89307C40.4859 1.69432 40.3288 1.52794 40.1364 1.41187C39.9441 1.29579 39.7237 1.23442 39.499 1.23438C39.2743 1.23442 39.0538 1.29583 38.8614 1.41196C38.669 1.52809 38.5119 1.69455 38.4072 1.89338L35.2612 7.86467L28.6078 9.01634C28.3864 9.05466 28.1796 9.15269 28.0098 9.29986C27.84 9.44703 27.7136 9.63776 27.6443 9.85148C27.5749 10.0652 27.5651 10.2938 27.6161 10.5126C27.6671 10.7315 27.7768 10.9323 27.9335 11.0933L32.64 15.9324ZM36.2805 10.1933C36.4667 10.1611 36.643 10.0865 36.7958 9.9754C36.9487 9.86427 37.0739 9.71954 37.162 9.55237L39.499 5.11556L41.8401 9.55298C41.9282 9.72001 42.0535 9.86459 42.2063 9.97561C42.359 10.0866 42.5352 10.1611 42.7213 10.1933L47.667 11.0494L44.1689 14.6465C44.0372 14.782 43.9382 14.9459 43.8798 15.1257C43.8214 15.3055 43.8051 15.4963 43.8321 15.6834L44.5477 20.6485L40.044 18.4323C39.8744 18.3488 39.6879 18.3054 39.4988 18.3054C39.3098 18.3054 39.1233 18.3488 38.9537 18.4323L34.4547 20.6475L35.1702 15.6832C35.1972 15.4961 35.1808 15.3054 35.1224 15.1256C35.064 14.9459 34.9651 14.782 34.8334 14.6465L31.3347 11.0494L36.2805 10.1933ZM9.73003 18.0143L9.06856 22.6141C9.03657 22.8365 9.06593 23.0635 9.15345 23.2705C9.24097 23.4775 9.38334 23.6566 9.56521 23.7887C9.74708 23.9207 9.96154 24.0006 10.1855 24.0197C10.4094 24.0387 10.6343 23.9964 10.8359 23.897L15.0051 21.8432L19.1702 23.8967C19.3718 23.9961 19.5967 24.0386 19.8206 24.0195C20.0446 24.0005 20.2591 23.9206 20.441 23.7886C20.6229 23.6566 20.7653 23.4775 20.8529 23.2705C20.9404 23.0635 20.9698 22.8365 20.9378 22.6141L20.2764 18.0148L23.518 14.6841C23.6747 14.5231 23.7845 14.3223 23.8355 14.1035C23.8865 13.8846 23.8768 13.656 23.8075 13.4423C23.7381 13.2285 23.6118 13.0378 23.442 12.8906C23.2722 12.7434 23.0654 12.6453 22.844 12.607L18.2636 11.8139L16.0972 7.70574C15.9925 7.50707 15.8355 7.34075 15.6432 7.22471C15.4508 7.10866 15.2305 7.04729 15.0059 7.0472C14.7813 7.04719 14.561 7.10843 14.3687 7.22434C14.1764 7.34024 14.0193 7.50642 13.9144 7.70497L11.7435 11.8139L7.1667 12.6071C6.94537 12.6455 6.7387 12.7435 6.56897 12.8906C6.39923 13.0378 6.27286 13.2284 6.20347 13.4421C6.13408 13.6557 6.12431 13.8842 6.1752 14.103C6.22609 14.3218 6.33571 14.5226 6.49227 14.6837L9.73003 18.0143ZM12.7624 14.1429C12.9483 14.1107 13.1244 14.0363 13.2771 13.9254C13.4298 13.8145 13.555 13.6701 13.6432 13.5033L15.0044 10.9265L16.3622 13.5033C16.4503 13.6704 16.5755 13.8151 16.7283 13.9261C16.8811 14.0372 17.0574 14.1117 17.2435 14.1439L20.1151 14.6411L18.0829 16.7292C17.9511 16.8646 17.8522 17.0285 17.7937 17.2082C17.7353 17.3879 17.7188 17.5787 17.7458 17.7657L18.1602 20.6475L15.5506 19.361C15.3809 19.2774 15.1942 19.2339 15.005 19.2339C14.8158 19.2339 14.6291 19.2774 14.4594 19.361L11.8448 20.6489L12.2594 17.7661C12.2863 17.5791 12.2699 17.3885 12.2116 17.2088C12.1532 17.0292 12.0544 16.8654 11.9227 16.7299L9.89297 14.6402L12.7624 14.1429ZM58.7218 18.0143L58.0609 22.6141C58.0289 22.8365 58.0583 23.0635 58.1458 23.2705C58.2333 23.4775 58.3757 23.6566 58.5575 23.7887C58.7394 23.9207 58.9539 24.0006 59.1778 24.0197C59.4017 24.0387 59.6266 23.9964 59.8282 23.897L63.9976 21.8432L68.1672 23.897C68.3689 23.9964 68.5939 24.0388 68.8179 24.0196C69.0419 24.0005 69.2564 23.9205 69.4383 23.7883C69.6202 23.6562 69.7625 23.4768 69.8499 23.2697C69.9374 23.0626 69.9666 22.8355 69.9344 22.613L69.2692 18.0149L72.5103 14.6847C72.6671 14.5237 72.7768 14.3229 72.8279 14.1041C72.8789 13.8853 72.8692 13.6566 72.7998 13.4429C72.7305 13.2292 72.6041 13.0384 72.4343 12.8912C72.2645 12.744 72.0578 12.6459 71.8364 12.6076L67.2558 11.8145L65.0888 7.70574C64.984 7.50705 64.827 7.34071 64.6347 7.22467C64.4423 7.10862 64.222 7.04726 63.9973 7.0472C63.7728 7.04722 63.5525 7.10847 63.3602 7.22438C63.1679 7.34028 63.0109 7.50644 62.906 7.70497L60.7355 11.8139L56.1587 12.6071C55.9374 12.6455 55.7307 12.7435 55.5609 12.8906C55.3912 13.0377 55.2648 13.2284 55.1954 13.442C55.126 13.6557 55.1162 13.8842 55.1671 14.103C55.218 14.3218 55.3276 14.5226 55.4841 14.6837L58.7218 18.0143ZM61.754 14.1429C61.9399 14.1106 62.116 14.0362 62.2687 13.9253C62.4214 13.8144 62.5466 13.67 62.6347 13.5031L63.9959 10.9264L65.3537 13.5031C65.4418 13.6702 65.5671 13.8149 65.7199 13.926C65.8727 14.037 66.049 14.1115 66.2351 14.1438L69.1069 14.6409L67.0745 16.729C66.9425 16.8646 66.8435 17.0287 66.7851 17.2086C66.7267 17.3885 66.7104 17.5795 66.7375 17.7667L67.1541 20.6474L64.5418 19.3606C64.3721 19.277 64.1855 19.2336 63.9963 19.2336C63.8072 19.2336 63.6205 19.277 63.4508 19.3606L60.8364 20.6483L61.251 17.7657C61.2779 17.5788 61.2615 17.3881 61.2032 17.2085C61.1448 17.0288 61.046 16.8649 60.9143 16.7295L58.8845 14.6402L61.754 14.1429Z" fill="#5956E9"/>
</mask>
<g mask="url(#mask0_0_22172)">
<rect x="-10" y="-8" width="98" height="95" fill="#FF3C43"/>
</g>
</svg>
